<svg width="83" height="80" viewBox="0 0 83 80" fill="none" xmlns="http://www.w3.org/2000/svg">
<path d="M42.4552 40.3566L41.5421 39.45L40.6342 40.3579C40.5735 40.4172 34.5533 46.3343 26.2659 45.0523L24.7789 44.8228V52.8768C24.7789 69.1009 40.9798 74.5821 41.1436 74.6349L41.5447 74.7665L41.9458 74.6349C42.1096 74.5821 58.3105 69.1009 58.3105 52.8768V44.8228L56.8248 45.0523C48.5824 46.3239 42.5145 40.4159 42.4552 40.3566ZM55.7311 52.8768C55.7311 66.0212 43.959 71.1309 41.5498 72.0375C39.2155 71.1348 27.3582 65.9025 27.3582 52.8768V47.7684C34.2864 48.2701 39.5147 44.6628 41.5447 42.9927C43.5746 44.6654 48.8185 48.2649 55.7311 47.7684V52.8768Z" fill="#2F80ED"/>
<path d="M38.9653 62.5584L34.7184 58.3115L32.8948 60.1351L38.9653 66.2056L51.4842 53.6867L49.6606 51.8631L38.9653 62.5584Z" fill="#2F80ED"/>
<path d="M82.3217 59.3252H71.2073V56.7458C71.2073 55.3233 70.0504 54.1665 68.6279 54.1665H63.4305C63.446 53.7615 63.4692 53.3604 63.4692 52.9438V51.5871H71.2073C72.6298 51.5871 73.7866 50.4303 73.7866 49.0078V2.57936C73.7866 1.15684 72.6298 0 71.2073 0H11.8821C10.4596 0 9.30273 1.15684 9.30273 2.57936V49.0078C9.30273 50.4303 10.4596 51.5871 11.8821 51.5871H19.6201V52.9438C19.6201 53.3604 19.6421 53.7615 19.6588 54.1665H14.4614C13.0389 54.1665 11.8821 55.3233 11.8821 56.7458V59.3252H0.767639L3.99183 65.7736L0.767639 72.222H18.3305C19.753 72.222 20.9098 71.0651 20.9098 69.6426V67.0632H23.4892V67.0052C29.6629 76.888 41.0739 79.8826 41.2313 79.9213L41.5447 80L41.8581 79.92C42.0154 79.8814 53.4278 76.888 59.6002 67.0039V67.0632H62.1795V69.6426C62.1795 71.0651 63.3364 72.222 64.7589 72.222H82.3217L79.0975 65.7736L82.3217 59.3252ZM32.5169 2.57936H50.5724V13.6525L46.7034 9.7835L41.5447 14.9422L36.386 9.7835L32.5169 13.6525V2.57936ZM11.8821 49.0078V2.57936H29.9376V19.8791L36.386 13.4307L41.5447 18.5894L46.7034 13.4307L53.1518 19.8791V2.57936H71.2073V49.0078H63.4692V38.4079L61.6869 39.1456C51.0922 43.5215 42.8588 34.3609 42.5145 33.9701L41.5421 32.8661L40.5748 33.9714C40.491 34.0681 32.032 43.5369 21.4038 39.1456L19.6201 38.4079V49.0078H11.8821ZM18.3305 69.6426H4.94104L6.87555 65.7736L4.94104 61.9045H11.8821V64.4839C11.8821 65.9064 13.0389 67.0632 14.4614 67.0632H18.3305V69.6426ZM14.4614 64.4839V56.7458H19.8587C20.2327 59.6553 21.0349 62.2192 22.1079 64.4839H14.4614ZM41.5498 77.3329C39.0491 76.594 22.1995 70.9361 22.1995 52.9438V42.1647C31.4568 44.9375 38.9563 39.0592 41.5447 36.6449C44.1318 39.0592 51.63 44.9337 60.8898 42.1647V52.9438C60.8898 71.1051 44.1782 76.5836 41.5498 77.3329ZM63.2306 56.7458H68.6279V64.4839H60.9814C62.0544 62.2192 62.8553 59.6553 63.2306 56.7458ZM78.1483 69.6426H64.7589V67.0632H68.6279C70.0504 67.0632 71.2073 65.9064 71.2073 64.4839V61.9045H78.1483L76.2138 65.7736L78.1483 69.6426Z" fill="#2F80ED"/>
</svg>
