<svg width="114" height="80" viewBox="0 0 114 80" fill="none" xmlns="http://www.w3.org/2000/svg">
<path d="M81.8976 16.0461H7.01657C3.1475 16.0461 -6.10352e-05 19.1936 -6.10352e-05 23.0627V72.9834C-6.10352e-05 76.8524 3.1475 80 7.01657 80H81.8973C85.7664 80 88.9142 76.8524 88.9142 72.9834V23.0627C88.9142 19.1936 85.7666 16.0461 81.8976 16.0461ZM85.578 72.9834C85.578 75.0127 83.9268 76.6638 81.8973 76.6638H7.01657C4.98707 76.6638 3.33611 75.0127 3.33611 72.9834V23.0627C3.33611 21.0332 4.98707 19.3823 7.01657 19.3823H81.8973C83.9268 19.3823 85.578 21.0332 85.578 23.0627V72.9834Z" fill="#2F80ED"/>
<path d="M23.0624 35.6576H15.931C13.045 35.6576 10.6973 38.0056 10.6973 40.8914V44.4571C10.6973 47.3431 13.045 49.6909 15.931 49.6909H23.0624C25.9484 49.6909 28.2962 47.3429 28.2962 44.4571V40.8914C28.2962 38.0054 25.9482 35.6576 23.0624 35.6576ZM17.8287 46.355H15.931C14.8846 46.355 14.0334 45.5038 14.0334 44.4573V40.8914C14.0334 39.845 14.8848 38.9938 15.931 38.9938H17.8287V46.355ZM24.9603 44.4571C24.9603 45.5036 24.1089 46.3547 23.0627 46.3547H21.165V38.9936H23.0627C24.1089 38.9938 24.9603 39.845 24.9603 40.8914V44.4571Z" fill="#2F80ED"/>
<path d="M23.0627 55.2692H12.3653C11.4441 55.2692 10.6973 56.0158 10.6973 56.9373C10.6973 57.8587 11.4441 58.6054 12.3653 58.6054H23.0627C23.9839 58.6054 24.7307 57.8587 24.7307 56.9373C24.7307 56.0158 23.9839 55.2692 23.0627 55.2692Z" fill="#2F80ED"/>
<path d="M40.8914 55.2692H30.194C29.2728 55.2692 28.526 56.0158 28.526 56.9373C28.526 57.8587 29.2728 58.6054 30.194 58.6054H40.8914C41.8126 58.6054 42.5595 57.8587 42.5595 56.9373C42.5595 56.0158 41.8126 55.2692 40.8914 55.2692Z" fill="#2F80ED"/>
<path d="M48.0228 64.1835H12.3653C11.4441 64.1835 10.6973 64.9301 10.6973 65.8515C10.6973 66.773 11.4441 67.5196 12.3653 67.5196H48.023C48.9442 67.5196 49.6911 66.773 49.6911 65.8515C49.6911 64.9301 48.9442 64.1835 48.0228 64.1835Z" fill="#2F80ED"/>
<path d="M58.7201 55.2692H48.0228C47.1015 55.2692 46.3547 56.0158 46.3547 56.9373C46.3547 57.8587 47.1015 58.6054 48.0228 58.6054H58.7201C59.6413 58.6054 60.3882 57.8587 60.3882 56.9373C60.3882 56.0158 59.6413 55.2692 58.7201 55.2692Z" fill="#2F80ED"/>
<path d="M76.5488 55.2692H65.8515C64.9302 55.2692 64.1834 56.0158 64.1834 56.9373C64.1834 57.8587 64.9302 58.6054 65.8515 58.6054H76.5488C77.47 58.6054 78.2169 57.8587 78.2169 56.9373C78.2169 56.0158 77.47 55.2692 76.5488 55.2692Z" fill="#2F80ED"/>
<path d="M69.4174 26.7434C66.4856 26.7434 63.8858 28.186 62.286 30.3969C60.686 28.1857 58.0862 26.7434 55.1546 26.7434C50.3025 26.7434 46.3551 30.6908 46.3551 35.5429C46.3551 40.395 50.3027 44.3424 55.1546 44.3424C58.0864 44.3424 60.6862 42.8998 62.286 40.6888C63.886 42.9 66.4858 44.3424 69.4174 44.3424C74.2695 44.3424 78.2169 40.395 78.2169 35.5429C78.2169 30.6908 74.2695 26.7434 69.4174 26.7434ZM55.1544 41.0062C52.1418 41.0062 49.6911 38.5552 49.6911 35.5429C49.6911 32.5305 52.142 30.0796 55.1544 30.0796C58.1667 30.0796 60.6177 32.5305 60.6177 35.5429C60.6177 38.5552 58.1669 41.0062 55.1544 41.0062ZM69.4174 41.0062C66.4048 41.0062 63.9541 38.5552 63.9541 35.5429C63.9541 32.5305 66.4051 30.0796 69.4174 30.0796C72.4297 30.0796 74.8807 32.5305 74.8807 35.5429C74.8807 38.5552 72.43 41.0062 69.4174 41.0062Z" fill="#2F80ED"/>
<path d="M106.858 0H31.9769C28.1078 0 24.96 3.14756 24.96 7.01663V10.5823C24.96 11.5038 25.7069 12.2504 26.6281 12.2504H110.538V19.6118H94.3777C93.4565 19.6118 92.7096 20.3584 92.7096 21.2799C92.7096 22.2013 93.4565 22.948 94.3777 22.948H110.538V56.9373C110.538 58.9668 108.887 60.6177 106.858 60.6177H94.3773C93.4561 60.6177 92.7092 61.3644 92.7092 62.2858C92.7092 63.2073 93.4561 63.9539 94.3773 63.9539H106.858C110.727 63.9539 113.875 60.8064 113.875 56.9373V7.01663C113.875 3.14779 110.727 0 106.858 0ZM110.538 8.91424H28.2964V7.01663C28.2964 4.98735 29.9476 3.33617 31.9771 3.33617H106.858C108.887 3.33617 110.538 4.98735 110.538 7.01663V8.91424Z" fill="#2F80ED"/>
</svg>
