<svg width="81" height="80" viewBox="0 0 81 80" fill="none" xmlns="http://www.w3.org/2000/svg">
<path d="M44.7675 0.000133134C39.1302 0.00430156 33.5726 1.33133 28.5415 3.87449C23.5105 6.41765 19.1465 10.106 15.8004 14.6428C12.4544 19.1797 10.2197 24.4384 9.27613 29.9962C8.33255 35.5539 8.70638 41.2556 10.3676 46.6426L2.69757 42.8076C2.38169 42.6527 2.01738 42.6289 1.68405 42.7414C1.35071 42.854 1.07536 43.0937 0.918007 43.4084C0.76065 43.723 0.73404 44.0871 0.843975 44.4213C0.953909 44.7555 1.19148 45.0328 1.50491 45.1926L12.1716 50.5259C12.4219 50.651 12.7053 50.6942 12.9815 50.6493C13.2577 50.6045 13.5129 50.4738 13.7107 50.2759L21.7107 42.2759C21.8345 42.1521 21.9327 42.0051 21.9997 41.8433C22.0668 41.6815 22.1012 41.5082 22.1012 41.3331C22.1012 41.158 22.0668 40.9846 21.9997 40.8228C21.9327 40.661 21.8345 40.514 21.7107 40.3902C21.5869 40.2664 21.4399 40.1682 21.2781 40.1012C21.1164 40.0342 20.943 39.9997 20.7679 39.9997C20.5928 39.9997 20.4194 40.0342 20.2576 40.1012C20.0958 40.1682 19.9489 40.2664 19.825 40.3902L13.2734 46.9419C12.0504 43.4237 11.4287 39.7247 11.4342 36.0001C11.4342 17.6201 26.3875 2.6668 44.7675 2.6668C63.1475 2.6668 78.1008 17.6201 78.1008 36.0001C78.1008 54.38 63.1475 69.3334 44.7675 69.3334C44.4139 69.3334 44.0747 69.4738 43.8247 69.7239C43.5746 69.9739 43.4342 70.3131 43.4342 70.6667C43.4342 71.0203 43.5746 71.3594 43.8247 71.6095C44.0747 71.8595 44.4139 72 44.7675 72C51.8876 72 58.8478 69.8886 64.768 65.9329C70.6881 61.9772 75.3023 56.3548 78.0271 49.7766C80.7518 43.1985 81.4648 35.9601 80.0757 28.9768C78.6866 21.9935 75.258 15.579 70.2233 10.5443C66.8882 7.1909 62.9211 4.53232 58.5516 2.72241C54.1821 0.912508 49.497 -0.012771 44.7675 0.000133134Z" fill="#2F80ED"/>
<path d="M27.5357 43.1771C27.6366 43.4207 27.8075 43.6289 28.0268 43.7754C28.2461 43.9219 28.5038 44.0001 28.7675 44.0001H42.1008C42.4545 44.0001 42.7936 43.8596 43.0437 43.6095C43.2937 43.3595 43.4342 43.0203 43.4342 42.6667C43.4342 42.3131 43.2937 41.974 43.0437 41.7239C42.7936 41.4739 42.4545 41.3334 42.1008 41.3334H31.9864L41.7103 31.6096C41.8342 31.4858 41.9324 31.3388 41.9994 31.177C42.0664 31.0152 42.1008 30.8418 42.1008 30.6667C42.1008 27.7259 39.1102 25.3334 35.4342 25.3334C31.7582 25.3334 28.7675 27.7259 28.7675 30.6667C28.7675 31.0204 28.908 31.3595 29.1581 31.6096C29.4081 31.8596 29.7472 32.0001 30.1009 32.0001C30.4545 32.0001 30.7936 31.8596 31.0437 31.6096C31.2937 31.3595 31.4342 31.0204 31.4342 30.6667C31.4342 29.2213 33.2659 28.0001 35.4342 28.0001C37.3555 28.0001 39.0128 28.9593 39.3652 30.1834L27.8247 41.7237C27.6382 41.9102 27.5112 42.1479 27.4597 42.4066C27.4083 42.6652 27.4347 42.9334 27.5357 43.1771Z" fill="#2F80ED"/>
<path d="M68.1068 20.5263C67.9111 20.2317 67.6064 20.0269 67.2598 19.957C66.9131 19.8871 66.5529 19.9577 66.2583 20.1534C65.9637 20.3491 65.759 20.6538 65.689 21.0005C65.6191 21.3471 65.6898 21.7074 65.8855 22.0019C66.3511 22.7028 66.7865 23.4353 67.1793 24.1778C67.3466 24.4866 67.6291 24.7169 67.9653 24.8187C68.3015 24.9205 68.6643 24.8854 68.9748 24.7213C69.2853 24.5571 69.5185 24.277 69.6237 23.9419C69.7289 23.6067 69.6976 23.2436 69.5366 22.9314C69.1025 22.1101 68.6215 21.3011 68.1068 20.5263Z" fill="#2F80ED"/>
<path d="M71.6405 28.1114C71.5928 27.9416 71.512 27.7828 71.4026 27.6444C71.2932 27.5061 71.1574 27.3908 71.0031 27.3052C70.8488 27.2197 70.679 27.1656 70.5037 27.1462C70.3284 27.1267 70.1509 27.1423 69.9816 27.1919C69.8123 27.2415 69.6546 27.3242 69.5175 27.4352C69.3804 27.5463 69.2667 27.6834 69.183 27.8387C69.0993 27.994 69.0472 28.1643 69.0298 28.3399C69.0124 28.5155 69.03 28.6927 69.0816 28.8614C69.3188 29.6714 69.5153 30.4928 69.6703 31.3224C69.7351 31.67 69.9354 31.9777 70.2271 32.1776C70.5188 32.3776 70.8779 32.4535 71.2255 32.3887C71.5732 32.3238 71.8808 32.1235 72.0808 31.8319C72.2807 31.5402 72.3566 31.181 72.2918 30.8334C72.1203 29.9158 71.9029 29.0073 71.6405 28.1114Z" fill="#2F80ED"/>
<path d="M70.6446 42.6051C70.3069 42.5009 69.9416 42.5352 69.6291 42.7002C69.3166 42.8653 69.0824 43.1477 68.978 43.4854C68.7286 44.292 68.439 45.0856 68.1103 45.8632C68.0407 46.0247 68.0037 46.1984 68.0014 46.3743C67.9992 46.5502 68.0318 46.7247 68.0974 46.8879C68.1629 47.0511 68.2601 47.1998 68.3833 47.3253C68.5065 47.4508 68.6533 47.5507 68.8153 47.6192C68.9773 47.6877 69.1513 47.7234 69.3271 47.7244C69.503 47.7254 69.6773 47.6916 69.8401 47.625C70.0028 47.5583 70.1508 47.4601 70.2754 47.336C70.4001 47.2119 70.4989 47.0644 70.5663 46.9019C70.9298 46.042 71.2501 45.1645 71.5258 44.2726C71.5775 44.1052 71.5956 43.9293 71.5793 43.755C71.563 43.5806 71.5125 43.4111 71.4307 43.2563C71.3488 43.1014 71.2373 42.9642 71.1024 42.8525C70.9676 42.7407 70.812 42.6567 70.6446 42.6051Z" fill="#2F80ED"/>
<path d="M62.4933 14.3243C62.2194 14.1033 61.8691 13.9996 61.519 14.0358C61.1689 14.0719 60.8473 14.2451 60.6244 14.5175C60.4014 14.7899 60.2952 15.1394 60.3289 15.4897C60.3626 15.8401 60.5335 16.1629 60.8043 16.3878C61.4561 16.9211 62.0876 17.4933 62.6811 18.0878C62.8049 18.2116 62.9519 18.3099 63.1137 18.3769C63.2754 18.444 63.4488 18.4785 63.624 18.4786C63.7991 18.4786 63.9725 18.4442 64.1343 18.3772C64.2961 18.3102 64.4431 18.2121 64.567 18.0883C64.6908 17.9645 64.7891 17.8175 64.8561 17.6557C64.9232 17.494 64.9577 17.3206 64.9578 17.1455C64.9578 16.9703 64.9234 16.7969 64.8564 16.6351C64.7895 16.4733 64.6913 16.3263 64.5675 16.2024C63.9115 15.5458 63.2138 14.9139 62.4933 14.3243Z" fill="#2F80ED"/>
<path d="M64.3095 54.1935C64.5799 54.4213 64.9298 54.5324 65.2821 54.5023C65.6344 54.4721 65.9603 54.3033 66.1881 54.0329C66.787 53.3222 67.357 52.573 67.8823 51.8065C68.0822 51.5148 68.158 51.1556 68.0931 50.808C68.0282 50.4603 67.8278 50.1527 67.536 49.9528C67.3916 49.8538 67.2291 49.7843 67.0577 49.7481C66.8864 49.7119 66.7096 49.7098 66.5375 49.742C66.1898 49.8069 65.8822 50.0073 65.6823 50.299C65.2068 50.993 64.6908 51.6712 64.149 52.3157C63.9214 52.5861 63.8105 52.9357 63.8406 53.2878C63.8707 53.64 64.0393 53.9657 64.3095 54.1935Z" fill="#2F80ED"/>
<path d="M72.63 38.7924C72.7213 37.8702 72.7675 36.9306 72.7675 36.0001C72.7675 35.6465 72.627 35.3073 72.3769 35.0573C72.1269 34.8072 71.7878 34.6667 71.4341 34.6667C71.0805 34.6667 70.7414 34.8072 70.4913 35.0573C70.2413 35.3073 70.1008 35.6465 70.1008 36.0001C70.1008 36.8434 70.059 37.6946 69.9763 38.5301C69.9415 38.882 70.048 39.2333 70.2722 39.5067C70.4964 39.7801 70.8201 39.9533 71.172 39.9881C71.2165 39.9924 71.2608 39.9947 71.3053 39.9947C71.6358 39.9942 71.9544 39.8709 72.1992 39.6487C72.444 39.4265 72.5975 39.1214 72.63 38.7924Z" fill="#2F80ED"/>
<path d="M39.0975 11.2708C39.1928 11.2707 39.2877 11.2605 39.3808 11.2403C40.2059 11.0619 41.0393 10.9249 41.878 10.8298C42.052 10.8101 42.2204 10.7563 42.3736 10.6715C42.5269 10.5867 42.6619 10.4726 42.771 10.3356C42.8801 10.1987 42.9612 10.0416 43.0096 9.87326C43.0579 9.70496 43.0727 9.52879 43.053 9.35478C43.0333 9.18078 42.9795 9.01237 42.8947 8.85915C42.81 8.70593 42.6958 8.57091 42.5589 8.4618C42.4219 8.35269 42.2648 8.27163 42.0965 8.22324C41.9282 8.17486 41.752 8.16009 41.578 8.17979C40.6533 8.28462 39.7243 8.43729 38.8168 8.63379C38.495 8.70304 38.2101 8.88892 38.0171 9.15563C37.8241 9.42235 37.7366 9.75104 37.7715 10.0784C37.8063 10.4058 37.9611 10.7087 38.2059 10.9288C38.4507 11.1489 38.7683 11.2708 39.0975 11.2708Z" fill="#2F80ED"/>
<path d="M22.3509 52.7802C22.9087 53.524 23.51 54.2479 24.1382 54.932C24.3783 55.1889 24.7101 55.3406 25.0614 55.354C25.4127 55.3675 25.7552 55.2416 26.0142 55.0038C26.2731 54.766 26.4277 54.4355 26.4442 54.0843C26.4607 53.7331 26.3379 53.3896 26.1024 53.1285C25.5337 52.5092 24.9892 51.8537 24.484 51.1802C24.2719 50.8973 23.956 50.7103 23.6059 50.6603C23.2559 50.6103 22.9003 50.7014 22.6174 50.9135C22.3345 51.1257 22.1475 51.4416 22.0974 51.7917C22.0474 52.1417 22.1385 52.4973 22.3507 52.7802H22.3509Z" fill="#2F80ED"/>
<path d="M19.309 27.9294C19.1397 27.885 18.9632 27.8744 18.7897 27.8981C18.6163 27.9219 18.4492 27.9796 18.298 28.068C18.1468 28.1563 18.0145 28.2736 17.9087 28.4131C17.8028 28.5526 17.7255 28.7115 17.6811 28.8809C17.4446 29.784 17.2534 30.6983 17.1084 31.6204C17.0535 31.9698 17.1396 32.3266 17.3478 32.6125C17.556 32.8983 17.8693 33.0898 18.2186 33.1447C18.568 33.1996 18.9248 33.1134 19.2107 32.9052C19.4965 32.697 19.688 32.3838 19.7429 32.0344C19.874 31.2006 20.0468 30.3739 20.2605 29.5574C20.305 29.388 20.3156 29.2116 20.2918 29.0381C20.268 28.8646 20.2103 28.6975 20.122 28.5464C20.0336 28.3952 19.9164 28.2629 19.7769 28.157C19.6374 28.0512 19.4784 27.9738 19.309 27.9294Z" fill="#2F80ED"/>
<path d="M56.591 13.5889C56.7459 13.6722 56.9157 13.724 57.0907 13.7413C57.2657 13.7587 57.4424 13.7412 57.6107 13.69C57.7789 13.6388 57.9353 13.5548 58.071 13.4428C58.2066 13.3309 58.3187 13.1932 58.4009 13.0378C58.4831 12.8823 58.5338 12.7121 58.5499 12.537C58.5661 12.3619 58.5474 12.1853 58.4951 12.0174C58.4427 11.8496 58.3576 11.6937 58.2448 11.5588C58.1319 11.424 57.9935 11.3128 57.8375 11.2316C57.0145 10.7964 56.161 10.3983 55.3005 10.0491C55.1383 9.98322 54.9646 9.94993 54.7896 9.95114C54.6145 9.95235 54.4413 9.98803 54.28 10.0561C54.1187 10.1243 53.9724 10.2235 53.8494 10.3482C53.7265 10.4728 53.6293 10.6205 53.5634 10.7827C53.4975 10.9449 53.4642 11.1185 53.4654 11.2936C53.4666 11.4687 53.5023 11.6419 53.5704 11.8032C53.6386 11.9645 53.7378 12.1108 53.8624 12.2337C53.9871 12.3567 54.1348 12.4539 54.297 12.5198C55.079 12.8377 55.8446 13.1945 56.591 13.5889Z" fill="#2F80ED"/>
<path d="M22.0277 24.8209C22.4008 24.0635 22.8116 23.3253 23.2585 22.6089C23.4415 22.3091 23.4988 21.9491 23.4179 21.6073C23.337 21.2654 23.1245 20.9693 22.8265 20.7833C22.5285 20.5973 22.1691 20.5364 21.8264 20.6138C21.4838 20.6913 21.1856 20.9008 20.9965 21.1969C20.5044 21.9853 20.0465 22.8083 19.6354 23.6424C19.558 23.7995 19.5123 23.9703 19.5009 24.145C19.4896 24.3198 19.5127 24.495 19.5691 24.6608C19.6254 24.8266 19.7139 24.9797 19.8294 25.1113C19.9449 25.2429 20.0852 25.3505 20.2423 25.4278C20.3994 25.5052 20.5702 25.5509 20.7449 25.5623C20.9196 25.5737 21.0949 25.5505 21.2607 25.4942C21.4265 25.4378 21.5796 25.3493 21.7112 25.2338C21.8428 25.1183 21.9503 24.978 22.0277 24.8209Z" fill="#2F80ED"/>
<path d="M31.6554 14.1086C31.8851 14.1086 32.1109 14.049 32.3107 13.9356C33.044 13.5213 33.8045 13.1396 34.5732 12.8013C34.7335 12.7307 34.8783 12.6293 34.9993 12.5028C35.1204 12.3764 35.2154 12.2273 35.2788 12.0641C35.3423 11.9009 35.373 11.7268 35.3692 11.5517C35.3653 11.3766 35.3271 11.204 35.2565 11.0438C35.186 10.8835 35.0846 10.7387 34.9581 10.6176C34.8316 10.4966 34.6825 10.4016 34.5193 10.3381C34.3561 10.2747 34.182 10.244 34.0069 10.2478C33.8319 10.2516 33.6593 10.2899 33.499 10.3604C32.6448 10.7366 31.8099 11.1552 30.9975 11.6148C30.7411 11.7599 30.5399 11.9858 30.4255 12.2573C30.311 12.5287 30.2897 12.8305 30.3648 13.1154C30.44 13.4002 30.6073 13.6522 30.8408 13.8319C31.0743 14.0116 31.3607 14.1089 31.6554 14.1086Z" fill="#2F80ED"/>
<path d="M60.5213 55.8404C59.8626 56.3642 59.1703 56.8605 58.4633 57.316C58.3152 57.4104 58.1872 57.5332 58.0867 57.6772C57.9862 57.8212 57.9151 57.9836 57.8775 58.1552C57.84 58.3268 57.8367 58.5041 57.8678 58.6769C57.899 58.8497 57.964 59.0147 58.0591 59.1624C58.1542 59.31 58.2775 59.4374 58.422 59.5373C58.5665 59.6371 58.7293 59.7074 58.901 59.7442C59.0728 59.7809 59.2501 59.7834 59.4228 59.7514C59.5954 59.7194 59.7601 59.6537 59.9073 59.5579C60.6883 59.0545 61.4533 58.5062 62.1808 57.9279C62.4576 57.7078 62.6357 57.3868 62.6758 57.0354C62.716 56.6841 62.6149 56.3312 62.3948 56.0544C62.1747 55.7775 61.8537 55.5995 61.5024 55.5594C61.151 55.5192 60.7981 55.6203 60.5213 55.8404Z" fill="#2F80ED"/>
<path d="M53.9597 59.6147C53.1731 59.9209 52.3716 60.1874 51.5583 60.4132C51.3896 60.46 51.2318 60.5396 51.0938 60.6475C50.9558 60.7553 50.8405 60.8892 50.7543 61.0417C50.6681 61.1941 50.6127 61.362 50.5914 61.5358C50.5701 61.7096 50.5833 61.8859 50.6301 62.0546C50.7247 62.3954 50.9507 62.6846 51.2585 62.8587C51.411 62.9449 51.5789 63.0002 51.7527 63.0215C51.9265 63.0428 52.1028 63.0297 52.2715 62.9829C53.1712 62.7331 54.0577 62.4383 54.9278 62.0995C55.0919 62.0366 55.2418 61.9419 55.3691 61.8208C55.4964 61.6997 55.5986 61.5547 55.6696 61.394C55.7407 61.2334 55.7793 61.0602 55.7833 60.8846C55.7872 60.709 55.7564 60.5343 55.6926 60.3706C55.6288 60.2069 55.5333 60.0574 55.4116 59.9307C55.2898 59.8041 55.1443 59.7027 54.9832 59.6325C54.8222 59.5623 54.6489 59.5245 54.4732 59.5215C54.2975 59.5185 54.123 59.5502 53.9597 59.6149V59.6147Z" fill="#2F80ED"/>
<path d="M29.8764 56.497C29.5905 56.2889 29.2336 56.2029 28.8843 56.2579C28.535 56.3129 28.2218 56.5045 28.0137 56.7904C27.8056 57.0763 27.7196 57.4331 27.7746 57.7825C27.8296 58.1318 28.0211 58.4449 28.307 58.653C29.0592 59.2005 29.8472 59.7159 30.649 60.1849C30.8002 60.2755 30.9679 60.3353 31.1424 60.3607C31.3169 60.3861 31.4946 60.3767 31.6654 60.3329C31.8362 60.2892 31.9966 60.212 32.1374 60.1059C32.2782 59.9997 32.3965 59.8667 32.4855 59.7145C32.5745 59.5623 32.6325 59.394 32.656 59.2193C32.6795 59.0445 32.6682 58.8669 32.6226 58.6966C32.577 58.5263 32.4981 58.3667 32.3904 58.2271C32.2828 58.0875 32.1485 57.9706 31.9954 57.8832C31.2699 57.4587 30.5569 56.9924 29.8764 56.497Z" fill="#2F80ED"/>
<path d="M44.0427 61.323H44.0045C43.6509 61.3181 43.3098 61.4539 43.0563 61.7005C42.8028 61.9471 42.6576 62.2842 42.6527 62.6379C42.6478 62.9915 42.7835 63.3326 43.0301 63.5861C43.2767 63.8396 43.6139 63.9848 43.9675 63.9897C44.2322 63.9972 44.5008 64.0009 44.7675 64.0009C45.433 64.0009 46.1045 63.977 46.7632 63.9307C47.1159 63.9058 47.4444 63.7418 47.6762 63.4748C47.9081 63.2078 48.0244 62.8596 47.9995 62.5069C47.9746 62.1541 47.8107 61.8257 47.5436 61.5938C47.2766 61.362 46.9284 61.2457 46.5757 61.2705C45.7395 61.3289 44.883 61.347 44.0427 61.323Z" fill="#2F80ED"/>
<path d="M26.4324 14.8378C25.7302 15.4466 25.0505 16.0978 24.4122 16.7734C24.1694 17.0305 24.0386 17.3735 24.0486 17.7271C24.0587 18.0806 24.2088 18.4156 24.4659 18.6584C24.723 18.9013 25.066 19.0321 25.4195 19.022C25.773 19.0119 26.108 18.8619 26.3509 18.6048C26.9287 17.9933 27.5439 17.4038 28.1794 16.8528C28.4466 16.6211 28.6108 16.2928 28.636 15.9401C28.6611 15.5873 28.5451 15.2391 28.3134 14.9719C28.0818 14.7047 27.7535 14.5404 27.4008 14.5153C27.048 14.4901 26.6997 14.6061 26.4325 14.8378H26.4324Z" fill="#2F80ED"/>
<path d="M36.5935 59.986C36.2588 59.8719 35.8925 59.8955 35.5751 60.0515C35.2577 60.2075 35.0154 60.4832 34.9013 60.8179C34.7872 61.1527 34.8107 61.519 34.9668 61.8364C35.1228 62.1537 35.3985 62.3961 35.7332 62.5102C36.6171 62.811 37.5156 63.0674 38.4252 63.2784C38.5958 63.3179 38.7725 63.3234 38.9452 63.2946C39.1179 63.2658 39.2833 63.2033 39.4318 63.1106C39.5804 63.0179 39.7092 62.8969 39.811 62.7544C39.9128 62.6119 39.9855 62.4508 40.025 62.2802C40.0645 62.1096 40.07 61.9329 40.0413 61.7602C40.0125 61.5875 39.95 61.4221 39.8573 61.2736C39.7646 61.125 39.6435 60.9961 39.5011 60.8944C39.3586 60.7926 39.1974 60.7199 39.0268 60.6804C38.2046 60.4898 37.3925 60.2581 36.5935 59.986Z" fill="#2F80ED"/>
<path d="M49.9355 8.47629C49.0232 8.30612 48.0903 8.17979 47.1627 8.10112C46.8103 8.07128 46.4605 8.18265 46.1902 8.41073C45.9199 8.6388 45.7513 8.9649 45.7215 9.31728C45.6917 9.66967 45.803 10.0195 46.0311 10.2897C46.2592 10.56 46.5853 10.7286 46.9377 10.7584C47.777 10.8296 48.621 10.9436 49.4458 11.0978C49.7935 11.1627 50.1527 11.0869 50.4444 10.887C50.7361 10.6871 50.9365 10.3795 51.0014 10.0319C51.0663 9.68423 50.9905 9.32504 50.7906 9.03332C50.5907 8.74159 50.2831 8.54122 49.9355 8.47629Z" fill="#2F80ED"/>
<path d="M27.4342 78.6667V65.3334C27.4342 64.9797 27.2937 64.6406 27.0437 64.3905C26.7936 64.1405 26.4545 64 26.1009 64H22.1009V60C22.1009 59.6464 21.9604 59.3073 21.7104 59.0572C21.4603 58.8072 21.1212 58.6667 20.7675 58.6667H7.43423C7.08061 58.6667 6.74147 58.8072 6.49143 59.0572C6.24138 59.3073 6.1009 59.6464 6.1009 60V64H2.10091C1.74729 64 1.40815 64.1405 1.1581 64.3905C0.908054 64.6406 0.767578 64.9797 0.767578 65.3334V78.6667C0.767578 79.0203 0.908054 79.3594 1.1581 79.6095C1.40815 79.8595 1.74729 80 2.10091 80H26.1009C26.4545 80 26.7936 79.8595 27.0437 79.6095C27.2937 79.3594 27.4342 79.0203 27.4342 78.6667ZM6.1009 77.3333H3.43424V66.6667H6.1009V77.3333ZM19.4342 77.3333H15.4342V76C15.4342 75.6464 15.2937 75.3072 15.0437 75.0572C14.7936 74.8072 14.4545 74.6667 14.1009 74.6667C13.7473 74.6667 13.4081 74.8072 13.1581 75.0572C12.908 75.3072 12.7676 75.6464 12.7676 76V77.3333H8.76756V61.3334H19.4342V77.3333ZM24.7675 77.3333H22.1009V66.6667H24.7675V77.3333Z" fill="#2F80ED"/>
<path d="M12.7676 66.6667H15.4342C15.7878 66.6667 16.127 66.5262 16.377 66.2762C16.6271 66.0261 16.7676 65.687 16.7676 65.3334C16.7676 64.9797 16.6271 64.6406 16.377 64.3905C16.127 64.1405 15.7878 64 15.4342 64H12.7676C12.4139 64 12.0748 64.1405 11.8248 64.3905C11.5747 64.6406 11.4342 64.9797 11.4342 65.3334C11.4342 65.687 11.5747 66.0261 11.8248 66.2762C12.0748 66.5262 12.4139 66.6667 12.7676 66.6667Z" fill="#2F80ED"/>
<path d="M12.7676 72H15.4342C15.7878 72 16.127 71.8595 16.377 71.6095C16.6271 71.3594 16.7676 71.0203 16.7676 70.6667C16.7676 70.3131 16.6271 69.9739 16.377 69.7239C16.127 69.4738 15.7878 69.3334 15.4342 69.3334H12.7676C12.4139 69.3334 12.0748 69.4738 11.8248 69.7239C11.5747 69.9739 11.4342 70.3131 11.4342 70.6667C11.4342 71.0203 11.5747 71.3594 11.8248 71.6095C12.0748 71.8595 12.4139 72 12.7676 72Z" fill="#2F80ED"/>
<path d="M46.22 37.8844C46.3259 38.1177 46.4967 38.3155 46.712 38.4542C46.9273 38.593 47.178 38.6667 47.4342 38.6667H55.4342V42.6667C55.4342 43.0203 55.5746 43.3595 55.8247 43.6095C56.0747 43.8596 56.4139 44.0001 56.7675 44.0001C57.1211 44.0001 57.4602 43.8596 57.7103 43.6095C57.9603 43.3595 58.1008 43.0203 58.1008 42.6667V38.6667H60.7675C61.1211 38.6667 61.4602 38.5263 61.7103 38.2762C61.9603 38.0262 62.1008 37.687 62.1008 37.3334C62.1008 36.9798 61.9603 36.6406 61.7103 36.3906C61.4602 36.1405 61.1211 36.0001 60.7675 36.0001H58.1008V26.6668C58.1008 26.3955 58.0181 26.1306 57.8636 25.9076C57.7092 25.6846 57.4904 25.514 57.2364 25.4185C56.9825 25.3231 56.7055 25.3075 56.4424 25.3736C56.1793 25.4397 55.9426 25.5846 55.764 25.7888L46.4307 36.4554C46.262 36.6482 46.1524 36.8855 46.1151 37.1389C46.0777 37.3923 46.1141 37.6511 46.22 37.8844ZM55.4342 30.2154V36.0001H50.3725L55.4342 30.2154Z" fill="#2F80ED"/>
</svg>
