<svg width="81" height="80" viewBox="0 0 81 80" fill="none" xmlns="http://www.w3.org/2000/svg">
<path d="M71.0902 47.7419H70.445V45.1613C70.445 43.0271 68.7082 41.2903 66.574 41.2903C64.4398 41.2903 62.7031 43.0271 62.7031 45.1613H35.6063V42.5806H35.5727C38.0605 40.7187 39.8644 37.991 40.5069 34.8387H40.7676C43.614 34.8387 45.9289 32.5239 45.9289 29.6774C45.9289 28.3794 45.4321 27.2065 44.6385 26.2994V21.9355C44.6385 12.6865 37.1134 5.16129 27.8644 5.16129C18.6153 5.16129 11.0902 12.6865 11.0902 21.9355V26.2994C10.2966 27.2065 9.79984 28.3794 9.79984 29.6774C9.79984 32.5239 12.1147 34.8387 14.9611 34.8387H15.2218C15.8644 37.991 17.6682 40.7187 20.156 42.5806H20.1224V45.1613H13.6708C6.55597 45.1613 0.767578 50.9497 0.767578 58.0645V78.7097C0.767578 79.4232 1.34435 80 2.0579 80H45.9289C46.6424 80 47.2192 79.4232 47.2192 78.7097V59.3548H71.0902C74.2915 59.3548 76.8966 56.7497 76.8966 53.5484C76.8966 50.3471 74.2915 47.7419 71.0902 47.7419ZM20.8076 47.7419L25.8295 53.7677L20.876 56.2439L18.0411 47.7419H20.8076ZM27.694 61.9355H28.036L30.2476 77.4193H25.4824L27.694 61.9355ZM28.3573 59.3548H27.3715L25.9831 56.5768L27.8644 55.6361L29.7456 56.5768L28.3573 59.3548ZM29.8992 53.7677L34.9211 47.7419H37.6876L34.8527 56.2452L29.8992 53.7677ZM40.7676 32.2581V27.0968C42.1908 27.0968 43.3482 28.2542 43.3482 29.6774C43.3482 31.1006 42.1908 32.2581 40.7676 32.2581ZM12.3805 29.6774C12.3805 28.2542 13.5379 27.0968 14.9611 27.0968V32.2581C13.5379 32.2581 12.3805 31.1006 12.3805 29.6774ZM14.9611 24.5161C14.5134 24.5161 14.0863 24.591 13.6708 24.6994V21.9355C13.6708 14.1097 20.0385 7.74194 27.8644 7.74194C35.6902 7.74194 42.0579 14.1097 42.0579 21.9355V24.6994C41.6424 24.591 41.2153 24.5161 40.7676 24.5161C40.7676 23.8026 40.1908 23.2258 39.4773 23.2258C37.4579 23.2258 35.5276 22.2606 34.316 20.6439L32.7676 18.5794C32.2811 17.9316 31.1895 17.9316 30.7031 18.5794L29.1547 20.6452C27.9431 22.2606 26.0127 23.2258 23.9934 23.2258H16.2514C15.5379 23.2258 14.9611 23.8026 14.9611 24.5161ZM17.5418 32.2581V25.8064H23.9934C26.8205 25.8064 29.5224 24.4555 31.2192 22.1935L31.7353 21.5045L32.2515 22.1923C33.6876 24.1071 35.8424 25.3703 38.1869 25.7123V32.2581C38.1869 37.9497 33.556 42.5806 27.8644 42.5806C22.1727 42.5806 17.5418 37.9497 17.5418 32.2581ZM27.8644 45.1613C29.6992 45.1613 31.4437 44.7703 33.0256 44.0761V45.9845L27.8644 52.1781L22.7031 45.9845V44.0761C24.285 44.7703 26.0295 45.1613 27.8644 45.1613ZM3.34822 58.0645C3.34822 52.3729 7.97919 47.7419 13.6708 47.7419H15.3224L18.8992 58.4723C19.0166 58.8258 19.2837 59.1123 19.6282 59.2555C19.7869 59.3226 19.9547 59.3548 20.1224 59.3548C20.3198 59.3548 20.5185 59.3097 20.6992 59.2194L23.6734 57.7316L25.2385 60.8619L22.8734 77.4193H11.0902V59.3548H8.50951V77.4193H3.34822V58.0645ZM62.7031 56.7742H47.2192V52.9032H44.6385V77.4193H32.8553L30.4902 60.8619L32.0553 57.7316L35.0295 59.2194C35.2102 59.3097 35.4089 59.3548 35.6063 59.3548C35.774 59.3548 35.9418 59.3226 36.1005 59.2568C36.4463 59.1135 36.7134 58.8271 36.8295 58.4735L40.4063 47.7419H62.7031V56.7742ZM71.0902 56.7742H65.2837V45.1613C65.2837 44.449 65.8618 43.871 66.574 43.871C67.2863 43.871 67.8644 44.449 67.8644 45.1613V49.0323C67.8644 49.7458 68.4411 50.3226 69.1547 50.3226H71.0902C72.8695 50.3226 74.316 51.769 74.316 53.5484C74.316 55.3277 72.8695 56.7742 71.0902 56.7742Z" fill="#2F80ED"/>
<path d="M63.9934 33.5484C73.2424 33.5484 80.7676 26.0232 80.7676 16.7742C80.7676 7.52516 73.2424 0 63.9934 0C54.7444 0 47.2192 7.52516 47.2192 16.7742C47.2192 26.0232 54.7444 33.5484 63.9934 33.5484ZM63.9934 2.58065C71.8192 2.58065 78.1869 8.94839 78.1869 16.7742C78.1869 24.6 71.8192 30.9677 63.9934 30.9677C56.1676 30.9677 49.7998 24.6 49.7998 16.7742C49.7998 8.94839 56.1676 2.58065 63.9934 2.58065Z" fill="#2F80ED"/>
<path d="M61.4127 23.2258C61.7431 23.2258 62.0734 23.0994 62.325 22.8477L72.6476 12.5252L70.8231 10.7006L61.4127 20.111L57.1637 15.8619L55.3392 17.6865L60.5005 22.8477C60.7521 23.0994 61.0824 23.2258 61.4127 23.2258Z" fill="#2F80ED"/>
</svg>
