<svg width="80" height="80" viewBox="0 0 80 80" fill="none" xmlns="http://www.w3.org/2000/svg">
<path d="M74.6666 12C74.6666 8.31836 71.6816 5.33333 67.9999 5.33333C64.3183 5.33333 61.3333 8.31836 61.3333 12C61.3333 15.6816 64.3183 18.6667 67.9999 18.6667C71.6803 18.6621 74.6621 15.6803 74.6666 12ZM63.9999 12C63.9999 9.79102 65.791 8 67.9999 8C70.2089 8 71.9999 9.79102 71.9999 12C71.9999 14.209 70.2089 16 67.9999 16C65.791 16 63.9999 14.209 63.9999 12Z" fill="#2F80ED"/>
<path d="M14.6666 58.6667H11.9999V66.6667C11.9999 67.403 12.5969 68 13.3333 68H18.6666V65.3333H14.6666V58.6667Z" fill="#2F80ED"/>
<path d="M67.0839 28.9681C67.5982 29.4551 68.4029 29.4551 68.9173 28.9681C70.052 27.8919 79.9999 18.2826 79.9999 12C79.9999 5.3724 74.6275 0 67.9999 0C61.3723 0 55.9999 5.3724 55.9999 12C55.9999 18.2826 65.9479 27.8919 67.0839 28.9681ZM67.9999 2.66667C73.1523 2.67253 77.3274 6.84766 77.3333 12C77.3333 15.9466 71.2623 22.8587 67.9999 26.1335C64.7376 22.8574 58.6666 15.9479 58.6666 12C58.6725 6.84766 62.8476 2.67253 67.9999 2.66667Z" fill="#2F80ED"/>
<path d="M59.9999 37.3333H17.3333C15.8606 37.3333 14.6666 36.1393 14.6666 34.6667C14.6666 33.194 15.8606 32 17.3333 32H55.9999V29.3333H17.3333C14.388 29.3333 11.9999 31.7214 11.9999 34.6667C11.9999 37.612 14.388 40 17.3333 40H59.9999C68.8365 40 75.9999 47.1634 75.9999 56C75.9999 64.8366 68.8365 72 59.9999 72H29.3333V74.6667H59.9999C70.3092 74.6667 78.6666 66.3092 78.6666 56C78.6666 45.6908 70.3092 37.3333 59.9999 37.3333Z" fill="#2F80ED"/>
<path d="M17.3333 50.6667H59.9999C62.9453 50.6667 65.3333 53.0547 65.3333 56C65.3333 58.9453 62.9453 61.3333 59.9999 61.3333H29.3333V64H59.9999C64.4179 64 67.9999 60.418 67.9999 56C67.9999 51.582 64.4179 48 59.9999 48H17.3333C9.96934 48 3.99994 42.0306 3.99994 34.6667C3.99994 27.3027 9.96934 21.3333 17.3333 21.3333H55.9999V18.6667H17.3333C8.49668 18.6667 1.33327 25.8301 1.33327 34.6667C1.33327 43.5033 8.49668 50.6667 17.3333 50.6667Z" fill="#2F80ED"/>
<path d="M13.3333 53.3333C5.96934 53.3333 -6.10352e-05 59.3027 -6.10352e-05 66.6667C-6.10352e-05 74.0306 5.96934 80 13.3333 80C20.6972 80 26.6666 74.0306 26.6666 66.6667C26.6588 59.306 20.694 53.3411 13.3333 53.3333ZM13.3333 77.3333C7.442 77.3333 2.66661 72.5579 2.66661 66.6667C2.66661 60.7754 7.442 56 13.3333 56C19.2245 56 23.9999 60.7754 23.9999 66.6667C23.9934 72.5547 19.2213 77.3268 13.3333 77.3333Z" fill="#2F80ED"/>
</svg>
