<svg width="81" height="80" viewBox="0 0 81 80" fill="none" xmlns="http://www.w3.org/2000/svg">
<path d="M24.6514 22.7315L26.502 31.5902V37.3533C26.502 37.6656 26.6261 37.9652 26.8469 38.186C27.0678 38.4069 27.3673 38.531 27.6797 38.531H52.3223C52.6347 38.531 52.9342 38.4069 53.1551 38.186C53.3759 37.9652 53.5 37.6656 53.5 37.3533V31.5902L55.3499 22.7288C55.9166 22.4021 56.3746 21.9159 56.667 21.3308C56.9593 20.7456 57.0731 20.0874 56.9941 19.4381C56.9151 18.7888 56.6469 18.1771 56.2228 17.6791C55.7987 17.1811 55.2374 16.8189 54.609 16.6376C53.9805 16.4562 53.3126 16.4638 52.6884 16.6593C52.0642 16.8548 51.5113 17.2295 51.0985 17.737C50.6858 18.2444 50.4314 18.862 50.3671 19.5129C50.3028 20.1639 50.4314 20.8193 50.7369 21.3977C49.0626 23.5384 47.4341 24.6454 46.1992 24.4408C44.8392 24.2133 43.5262 22.3223 42.4697 19.0929C42.8996 18.6155 43.1819 18.0237 43.2824 17.3892C43.3829 16.7547 43.2974 16.1046 43.0361 15.5177C42.7748 14.9308 42.349 14.4322 41.8102 14.0823C41.2714 13.7324 40.6428 13.5462 40.0003 13.5462C39.3579 13.5462 38.7292 13.7324 38.1905 14.0823C37.6517 14.4322 37.2259 14.9308 36.9646 15.5177C36.7033 16.1046 36.6177 16.7547 36.7183 17.3892C36.8188 18.0237 37.1011 18.6155 37.531 19.0929C36.4751 22.323 35.1622 24.2133 33.8022 24.4415C32.5707 24.6433 30.9394 23.539 29.2645 21.3977C29.514 20.9294 29.6464 20.4075 29.6501 19.8769C29.6532 19.2935 29.5026 18.7196 29.2136 18.2129C28.9246 17.7061 28.5073 17.2844 28.0036 16.9901C27.4999 16.6958 26.9276 16.5393 26.3443 16.5362C25.7609 16.5332 25.187 16.6838 24.6803 16.9729C24.1737 17.262 23.752 17.6794 23.4578 18.1831C23.1635 18.6869 23.0071 19.2592 23.0041 19.8425C23.0012 20.4259 23.1519 20.9997 23.441 21.5064C23.7302 22.013 24.1477 22.4346 24.6514 22.7288V22.7315ZM51.1447 36.1783H28.8573V32.6494H51.1447V36.1783ZM53.6736 18.9118C53.865 18.9117 54.0521 18.9683 54.2113 19.0745C54.3705 19.1807 54.4946 19.3317 54.568 19.5084C54.6414 19.6852 54.6607 19.8797 54.6236 20.0674C54.5864 20.2551 54.4944 20.4276 54.3593 20.5631C54.2241 20.6985 54.0518 20.7909 53.8642 20.8284C53.6765 20.866 53.4819 20.847 53.3051 20.774C53.1282 20.701 52.9769 20.5772 52.8704 20.4182C52.7639 20.2592 52.7069 20.0723 52.7066 19.8809C52.7066 19.6242 52.8084 19.3781 52.9897 19.1964C53.171 19.0147 53.417 18.9124 53.6736 18.9118ZM40.0007 15.9266C40.1921 15.9266 40.3792 15.9834 40.5384 16.0898C40.6975 16.1961 40.8216 16.3473 40.8948 16.5242C40.968 16.701 40.9871 16.8956 40.9497 17.0834C40.9123 17.2711 40.8201 17.4435 40.6847 17.5788C40.5493 17.7142 40.3768 17.8063 40.1891 17.8435C40.0013 17.8808 39.8067 17.8615 39.6299 17.7882C39.4531 17.7148 39.302 17.5907 39.1957 17.4315C39.0895 17.2723 39.0328 17.0851 39.033 16.8937C39.0332 16.6371 39.1352 16.3912 39.3166 16.2098C39.4981 16.0285 39.7441 15.9266 40.0007 15.9266ZM33.4879 26.825C33.7235 26.8254 33.9588 26.8059 34.1911 26.7665C36.4791 26.3829 38.2725 24.2207 39.6501 20.181C39.7662 20.1997 39.8832 20.2118 40.0007 20.2174C40.1181 20.2119 40.2352 20.2 40.3513 20.1817C41.7288 24.2194 43.5188 26.3829 45.8102 26.7672C46.0426 26.8062 46.2778 26.8258 46.5135 26.8257C48.8432 26.8257 50.9549 24.9246 52.5027 22.9785C52.6232 23.0235 52.746 23.0617 52.8708 23.0929L51.3668 30.2934H28.6366L27.1326 23.0929C27.2574 23.0617 27.3803 23.0233 27.5007 22.9778C29.0491 24.924 31.1581 26.825 33.4879 26.825ZM26.3277 18.9118C26.5191 18.9118 26.7061 18.9686 26.8652 19.0748C27.0243 19.1811 27.1484 19.3322 27.2216 19.5089C27.2949 19.6857 27.3142 19.8802 27.2769 20.0678C27.2397 20.2555 27.1477 20.4279 27.0125 20.5633C26.8773 20.6987 26.705 20.791 26.5173 20.8285C26.3297 20.866 26.1352 20.847 25.9583 20.774C25.7815 20.7009 25.6303 20.5771 25.5238 20.4181C25.4173 20.2592 25.3603 20.0722 25.36 19.8809C25.3599 19.7537 25.3849 19.6278 25.4335 19.5103C25.4821 19.3927 25.5533 19.2859 25.6432 19.1959C25.733 19.106 25.8397 19.0346 25.9572 18.9858C26.0747 18.9371 26.2006 18.9119 26.3277 18.9118Z" fill="#2F80ED"/>
<path d="M80.0014 29.8062C79.9997 29.7128 79.987 29.62 79.9637 29.5296C79.9576 29.5054 79.9482 29.4839 79.9408 29.4623C79.9192 29.3949 79.8915 29.3295 79.858 29.2672C79.8452 29.2429 79.8331 29.2194 79.8183 29.1965C79.7733 29.1237 79.7205 29.056 79.6608 28.9946C79.6548 28.9886 79.6501 28.9818 79.644 28.9758C79.5859 28.9193 79.5221 28.869 79.4536 28.8257L68.2752 21.7685V1.17766C68.2752 0.865324 68.1512 0.565782 67.9303 0.344928C67.7095 0.124074 67.4099 0 67.0976 0H12.9038C12.5914 0 12.2919 0.124074 12.071 0.344928C11.8502 0.565782 11.7261 0.865324 11.7261 1.17766V21.7699L0.547107 28.8244C0.478511 28.8678 0.41448 28.9181 0.355989 28.9744C0.351278 28.9798 0.347241 28.9859 0.34253 28.9906C0.281444 29.0516 0.227486 29.1193 0.181696 29.1925C0.167564 29.2147 0.156124 29.2376 0.143338 29.2598C0.10949 29.3231 0.0813393 29.3893 0.0592193 29.4576C0.0518168 29.4805 0.0430685 29.502 0.0376849 29.5249C0.0140419 29.6155 0.00138932 29.7086 0 29.8022V78.8223C0 79.1347 0.124074 79.4342 0.344928 79.6551C0.565782 79.8759 0.865324 80 1.17766 80H78.825C78.9797 80.0001 79.1329 79.9697 79.2758 79.9105C79.4187 79.8514 79.5486 79.7646 79.658 79.6553C79.7673 79.5459 79.8541 79.416 79.9132 79.2731C79.9724 79.1302 80.0028 78.977 80.0027 78.8223V29.8197L80.0014 29.8062ZM76.6198 29.8197L68.2752 35.0861V24.5525L76.6198 29.8197ZM9.5424 36.4926L39.3721 55.319C39.5602 55.438 39.7781 55.5012 40.0007 55.5012C40.2232 55.5012 40.4412 55.438 40.6292 55.319L70.459 36.4926V63.3257C68.6588 63.5843 66.9909 64.419 65.705 65.705C64.419 66.9909 63.5843 68.6588 63.3257 70.459H16.6763C16.4183 68.6586 15.5837 66.9904 14.2976 65.7044C13.0116 64.4184 11.3434 63.5838 9.54307 63.3257L9.5424 36.4926ZM65.9199 2.35532V36.57L40.0007 52.9307L14.0814 36.57V2.35532H65.9199ZM11.7261 35.0895L3.38156 29.823L11.7261 24.5565V35.0895ZM77.6474 77.6521H2.3533V31.959L7.18708 35.0094V64.4246C7.18708 64.737 7.31115 65.0365 7.53201 65.2574C7.75286 65.4782 8.0524 65.6023 8.36474 65.6023C9.96579 65.6042 11.5007 66.2411 12.6328 67.3732C13.7649 68.5054 14.4018 70.0403 14.4038 71.6413C14.4038 71.9537 14.5278 72.2532 14.7487 72.4741C14.9696 72.6949 15.2691 72.819 15.5814 72.819H64.4199C64.5746 72.8191 64.7278 72.7887 64.8707 72.7295C65.0136 72.6704 65.1435 72.5836 65.2528 72.4743C65.3622 72.3649 65.449 72.235 65.5081 72.0921C65.5673 71.9492 65.5977 71.796 65.5976 71.6413C65.5994 70.0402 66.2362 68.5052 67.3683 67.373C68.5005 66.2409 70.0355 65.6041 71.6366 65.6023C71.9489 65.6023 72.2485 65.4782 72.4693 65.2574C72.6902 65.0365 72.8143 64.737 72.8143 64.4246V35.0061L77.6474 31.9556V77.6521Z" fill="#2F80ED"/>
</svg>
